<svg xmlns="http://www.w3.org/2000/svg" width="90" height="74.292" viewBox="0 0 90 74.292">
  <g id="グループ_5338" data-name="グループ 5338" transform="translate(329.5 2391)">
    <g id="グループ_5336" data-name="グループ 5336">
      <g id="グループ_5334" data-name="グループ 5334" transform="translate(-9631.5 -2541.172)">
        <circle id="楕円形_5" data-name="楕円形 5" cx="31.521" cy="31.521" r="31.521" transform="translate(9328.959 161.422)" fill="#37ac39"/>
        <g id="グループ_14" data-name="グループ 14" transform="translate(9337.753 172.983)">
          <path id="パス_899" data-name="パス 899" d="M544.089,254.011c7.263-.745,7.8,9.522,7.363,16.376,0,0,20.022-5.77,25.947,6.147,4.571,9.192-8.887,20.1-27.324,16.735C527.188,289.1,536.15,254.829,544.089,254.011ZM560.5,285.117c6.355-.646,10.26-4.8,5.677-7.619s-16.041.154-15.983,4.071C550.249,284.757,555.382,285.641,560.5,285.117Z" transform="translate(-532.844 -253.972)" fill="#fff"/>
          <path id="パス_900" data-name="パス 900" d="M544.1,258.084a1.85,1.85,0,1,1-1.853-1.852A1.851,1.851,0,0,1,544.1,258.084Z" transform="translate(-530.93 -253.091)" fill="#1a1311"/>
          <path id="パス_901" data-name="パス 901" d="M540.558,257.72l-6.971,1.415,5.227,3.7" transform="translate(-533.588 -252.511)" fill="#ffec00"/>
        </g>
        <path id="多角形_1" data-name="多角形 1" d="M5.779,0l5.779,25.217H0Z" transform="matrix(-0.191, 0.982, -0.982, -0.191, 9328.959, 166.544)" fill="#faec39"/>
        <path id="多角形_2" data-name="多角形 2" d="M4.2,0l4.2,17.862H0Z" transform="translate(9331.884 165.482) rotate(149)" fill="#faec39"/>
      </g>
    </g>
  </g>
</svg>
