<svg xmlns="http://www.w3.org/2000/svg" width="90" height="74.292" viewBox="0 0 90 74.292">
  <g id="グループ_5337" data-name="グループ 5337" transform="translate(329.5 2245.828)">
    <g id="グループ_5335" data-name="グループ 5335">
      <g id="楕円形_5" data-name="楕円形 5" transform="translate(-302.541 -2234.578)" fill="#37ac39" stroke="#fff" stroke-width="2">
        <circle cx="31.521" cy="31.521" r="31.521" stroke="none"/>
        <circle cx="31.521" cy="31.521" r="30.521" fill="none"/>
      </g>
      <g id="グループ_14" data-name="グループ 14" transform="translate(-293.747 -2223.017)">
        <path id="パス_899" data-name="パス 899" d="M544.089,254.011c7.263-.745,7.8,9.522,7.363,16.376,0,0,20.022-5.77,25.947,6.147,4.571,9.192-8.887,20.1-27.324,16.735C527.188,289.1,536.15,254.829,544.089,254.011ZM560.5,285.117c6.355-.646,10.26-4.8,5.677-7.619s-16.041.154-15.983,4.071C550.249,284.757,555.382,285.641,560.5,285.117Z" transform="translate(-532.844 -253.972)" fill="#fff"/>
        <path id="パス_900" data-name="パス 900" d="M544.1,258.084a1.85,1.85,0,1,1-1.853-1.852A1.851,1.851,0,0,1,544.1,258.084Z" transform="translate(-530.93 -253.091)" fill="#1a1311"/>
        <path id="パス_901" data-name="パス 901" d="M540.558,257.72l-6.971,1.415,5.227,3.7" transform="translate(-533.588 -252.511)" fill="#ffec00"/>
      </g>
      <g id="多角形_1" data-name="多角形 1" transform="matrix(-0.191, 0.982, -0.982, -0.191, -302.541, -2229.456)" fill="#faec39">
        <path d="M 10.30247402191162 24.21650123596191 L 1.25508975982666 24.21650123596191 L 5.778781890869141 4.476748943328857 L 10.30247402191162 24.21650123596191 Z" stroke="none"/>
        <path d="M 5.778781890869141 8.953487396240234 L 2.510175704956055 23.21650123596191 L 9.047388076782227 23.21650123596191 L 5.778781890869141 8.953487396240234 M 5.778781890869141 0 L 11.55756187438965 25.21650123596191 L 1.9073486328125e-06 25.21650123596191 L 5.778781890869141 0 Z" stroke="none" fill="#fff"/>
      </g>
      <g id="多角形_2" data-name="多角形 2" transform="translate(-299.616 -2230.518) rotate(149)" fill="#faec39">
        <path d="M 7.142894744873047 16.8616828918457 L 1.262606739997864 16.8616828918457 L 4.202750682830811 4.366076469421387 L 7.142894744873047 16.8616828918457 Z" stroke="none"/>
        <path d="M 4.202750682830811 8.732107162475586 L 2.525202751159668 15.8616828918457 L 5.880298614501953 15.8616828918457 L 4.202750682830811 8.732107162475586 M 4.202750682830811 3.814697265625e-06 L 8.405500411987305 17.8616828918457 L 9.5367431640625e-07 17.8616828918457 L 4.202750682830811 3.814697265625e-06 Z" stroke="none" fill="#fff"/>
      </g>
    </g>
  </g>
</svg>
